<svg xmlns="http://www.w3.org/2000/svg" width="3000" height="3000" fill="none" viewBox="0 0 3000 3000" id="man-working-on-laptop">
  <path fill="#E7E8FF" d="M2405.15 1104.86C2445.76 1469.42 2504.41 1518.92 2743.51 1797.97C2908.22 1990.19 2790.4 2314.1 2678.64 2510.54C2649.65 2561.48 2594.15 2590.1 2535.46 2590.1H993.318C862.679 2590.1 382.229 2213.63 289.264 2122.02C-80.6785 1757.46 131.362 1023.84 393.028 879.82C654.694 735.797 952.453 1010.34 1421.65 587.273C1890.84 164.204 2367.56 767.302 2405.15 1104.86Z"></path>
  <path fill="#E7E8FF" d="M877.48 720.174C1007 722.571 1098.44 645.277 1127.97 606.33C1136.12 587.356 1145.69 545.214 1118.81 528.437C1085.21 507.466 990.507 579.367 877.48 549.408C764.454 519.45 736.959 576.371 648.37 666.248C559.781 756.125 715.576 717.178 877.48 720.174Z"></path>
  <path fill="#fff" d="M938.421 2590.1H1401.82C1530.81 2542.74 1702.79 2485.91 1659.8 2376.99 1616.8 2268.07 1401.82 2414.88 1344.49 2310.69 1287.17 2206.5 1750.57 2192.3 1702.79 2059.7 1655.02 1927.1 1363.6 2097.58 1401.82 1969.72 1440.04 1841.85 1764.9 1889.21 1750.57 1756.61 1736.23 1624.01 1492.59 1841.85 1463.93 1690.31 1435.26 1538.77 1698.02 1268.83 1492.59 1221.48 1287.17 1174.12 1344.49 1666.63 1272.83 1690.31 1201.17 1713.99 1134.29 1458.26 1033.97 1571.92 933.644 1685.58 1105.63 1941.3 1033.97 2059.7 962.308 2178.09 861.984 1737.67 747.328 1941.3 655.603 2104.21 836.505 2441.71 938.421 2590.1ZM2293.05 1763.14C2276.99 2155.1 2400.39 2449.02 2475.62 2565.48 2482.47 2576.09 2494.35 2582.03 2507.02 2582.03H2531.48C2553.12 2582.03 2570.66 2564.25 2570.32 2542.72 2561.88 2017.4 2429.99 1800.13 2336.87 1736.71 2316.98 1723.16 2294.03 1739.18 2293.05 1763.14Z"></path>
  <path fill="#032068" fill-rule="evenodd" d="M2312.24 1742.66C2306.28 1746.45 2301.55 1753.94 2301.16 1763.46C2285.16 2153.71 2408.08 2446 2482.45 2561.12C2487.68 2569.22 2496.88 2573.95 2507.02 2573.95H2531.48C2548.58 2573.95 2562.48 2559.88 2562.2 2542.85C2558 2280.8 2523 2096.07 2477.7 1969.2C2432.36 1842.21 2376.92 1773.77 2332.28 1743.37C2325.13 1738.49 2317.95 1739.03 2312.24 1742.66ZM2303.5 1729.05C2314.48 1722.07 2328.71 1721.37 2341.45 1730.05C2389.93 1763.06 2447 1834.97 2492.99 1963.8C2539.04 2092.76 2574.2 2279.33 2578.43 2542.59C2578.85 2568.61 2557.67 2590.1 2531.48 2590.1H2507.02C2491.82 2590.1 2477.26 2582.95 2468.8 2569.85C2392.7 2452.04 2268.81 2156.49 2284.95 1762.81C2285.54 1748.37 2292.77 1735.88 2303.5 1729.05Z" clip-rule="evenodd"></path>
  <path fill="#032068" d="M2854.69 1970.55C2643.97 2112.92 2545.12 2383.51 2514.21 2541.71C2509.7 2564.77 2527.93 2585.36 2551.55 2585.36H2583C2592.39 2585.36 2601.51 2582.02 2608.47 2575.76C2789.4 2412.97 2875.33 2159.75 2905.53 2004.67C2911.41 1974.47 2880.27 1953.27 2854.69 1970.55Z"></path>
  <path fill="#032068" fill-rule="evenodd" d="M2360.31 1821.7C2382.19 1888.02 2401.97 1953.06 2419.77 2015.64C2434.18 2066.32 2447.28 2115.39 2459.13 2162.21L2482.68 2104.92L2497.7 2111.03L2465.76 2188.72C2486.58 2272.85 2503.22 2349.08 2515.98 2413.55C2530.76 2488.18 2540.35 2547.11 2545.21 2584.33L2529.12 2586.41C2524.4 2550.25 2515.11 2493.02 2500.8 2420.41L2429.3 2382.16L2436.98 2367.94L2496.71 2399.89C2484.34 2338.68 2468.64 2267.71 2449.38 2190.03C2436.29 2137.25 2421.55 2081.38 2405.1 2023.36L2332.03 1984.92L2339.62 1970.65L2398.95 2001.87C2382.58 1945.1 2364.58 1886.43 2344.89 1826.73L2360.31 1821.7Z" clip-rule="evenodd"></path>
  <path fill="#fff" fill-rule="evenodd" d="M2793.46 2144.38C2815.43 2109.06 2836.51 2077.69 2855.68 2052.79L2842.8 2042.98C2819.95 2072.66 2794.65 2111.02 2768.6 2153.87C2744.15 2194.1 2718.96 2238.4 2694.39 2283.42L2689.55 2217.55L2673.37 2218.73L2680.06 2309.87C2651.36 2363.29 2623.89 2416.83 2599.9 2464.93C2577.28 2510.3 2557.76 2550.86 2543.23 2581.96L2557.94 2588.77C2572.12 2558.43 2591.09 2519 2613.07 2474.85L2684.51 2445.95L2678.4 2431L2624.01 2453C2645.88 2409.51 2670.22 2362.39 2695.48 2315.43C2723.53 2263.28 2752.7 2211.38 2780.86 2164.91L2834.76 2149.1L2830.17 2133.62L2793.46 2144.38Z" clip-rule="evenodd"></path>
  <path fill="#EFCB96" d="M685.309 1427.67L666.6 1525.89L685.309 1628.79C733.641 1635.03 832.176 1647.5 839.66 1647.5C847.143 1647.5 902.024 1600.73 928.528 1577.34L900.465 1427.67C979.043 1401.48 1004.92 1285.79 1008.04 1231.22C1026.75 1006.71 877.078 978.648 849.014 978.648C820.95 978.648 643.213 978.648 619.827 1165.74C601.117 1315.41 655.686 1402.72 685.309 1427.67Z"></path>
  <path fill="#F4AD5E" d="M231.604 2587.64H965.941L1896.72 2582.96C1954.32 2545.4 1970.44 2484.8 1970.59 2433.4C1970.72 2391.28 1940.36 2357.4 1902.43 2339.11C1751.7 2266.45 1522.93 2154 1480.44 2124.59C1419.64 2082.49 1363.51 1853.3 1251.26 1675.57C1161.45 1533.38 992.446 1500.95 923.845 1502.51C917.609 1530.57 891.104 1586.7 797.558 1586.7C704.012 1586.7 665.034 1530.57 652.562 1502.51C604.229 1502.51 470.147 1528.7 357.891 1633.47C217.67 1764.35 156.852 2063.37 100.757 2339.17L100.639 2339.74C55.7374 2560.51 169.24 2593.88 231.604 2587.64Z"></path>
  <path fill="#032068" d="M544.982 2227.49 615.141 1942.17 601.109 2227.49 920.587 2305.41C961.608 2315.42 999.969 2340.92 1007.73 2382.43 1021.58 2456.46 993.959 2535.19 961.262 2564.25 989.326 2524.1 989.326 2372.49 956.584 2349.1 930.392 2330.39 605.787 2269.58 446.758 2241.52L544.982 2227.49ZM1241.9 1867.34 1414.96 2587.64H1489.8L1241.9 1867.34ZM736.741 1334.12C718.031 1442.64 691.527 1454.17 680.613 1446.38 549.648 1362.19 552.808 1093.2 633.84 1002.03 708.677 917.843 764.805 950.584 919.156 913.166 1073.51 875.748 1124.96 941.229 1096.89 1025.42 1056.49 1146.62 928.51 1081.55 895.769 1095.58 863.028 1109.61 820.932 1147.03 802.223 1221.87 783.514 1296.7 774.159 1282.67 760.127 1240.58 746.095 1198.48 708.677 1137.68 680.613 1212.51 658.162 1272.38 708.677 1318.53 736.741 1334.12Z"></path>
  <path fill="#EFCB96" d="M1288.67 2587.64C1288.67 2460.42 1100.02 2422.38 1008.03 2419.26 1008.03 2482.87 969.056 2558.02 947.229 2587.64H1288.67ZM2197.77 2579.05C2197.77 2465.96 2048.27 2441.93 1967.63 2439.16 1967.63 2495.7 1917.56 2552.71 1898.42 2579.05H2197.77Z"></path>
  <path fill="#032068" fill-rule="evenodd" d="M90.6321 2418.81C88.4206 2509.11 120.083 2587.64 216.696 2587.64H301.781C279.33 2437.97 160.575 2347.55 104.445 2321.04C103.213 2327.09 101.984 2333.14 100.757 2339.17L100.64 2339.74C94.6569 2369.16 91.4863 2395.41 90.6321 2418.81Z" clip-rule="evenodd"></path>
  <path fill="#032068" d="M810.689 1426.25C854.251 1440.77 884.432 1432.3 899.557 1426.25L913.589 1491.73C855.507 1484.47 822.789 1442.88 810.689 1426.25Z"></path>
  <path fill="#fff" d="M1749.7 1903.05L1497.76 2475.16C1485.11 2503.88 1506.14 2536.13 1537.52 2536.13H2306.3C2323.96 2536.13 2339.86 2525.45 2346.53 2509.1L2580.1 1936.99C2591.77 1908.4 2570.74 1877.11 2539.87 1877.11H1789.46C1772.24 1877.11 1756.64 1887.28 1749.7 1903.05Z"></path>
  <path fill="#032068" fill-rule="evenodd" d="M1789.46 1886.13C1775.82 1886.13 1763.46 1894.2 1757.95 1906.69L1506.01 2478.8C1495.99 2501.55 1512.66 2527.1 1537.52 2527.1H2306.3C2320.29 2527.1 2332.89 2518.64 2338.17 2505.69L2571.74 1933.57C2580.99 1910.93 2564.33 1886.13 2539.87 1886.13H1789.46ZM1741.44 1899.41C1749.82 1880.37 1768.66 1868.08 1789.46 1868.08H2539.87C2577.15 1868.08 2602.55 1905.88 2588.45 1940.4L2354.89 2512.51C2346.83 2532.25 2327.62 2545.15 2306.3 2545.15H1537.52C1499.62 2545.15 1474.22 2506.21 1489.5 2471.53L1741.44 1899.41Z" clip-rule="evenodd"></path>
  <path fill="#F4AD5E" d="M1984.51 2160.85C1998.64 2128.08 2030.91 2106.86 2066.59 2106.86C2130.85 2106.86 2174.11 2172.63 2148.67 2231.64L2142.32 2246.34C2128.19 2279.11 2095.93 2300.33 2060.25 2300.33C1995.99 2300.33 1952.72 2234.56 1978.17 2175.55L1984.51 2160.85Z"></path>
  <path fill="#032068" d="M2294.23 2590.54H960.01C938.305 2590.54 920.71 2572.95 920.71 2551.24C920.71 2529.54 938.305 2511.94 960.01 2511.94H2294.23C2322.39 2511.94 2341.41 2540.69 2330.4 2566.61C2324.24 2581.12 2310 2590.54 2294.23 2590.54Z"></path>
  <path fill="#fff" d="M1749.56 767.364C1749.56 746.432 1766.49 729.464 1787.37 729.464H2499.88C2520.76 729.464 2537.68 746.432 2537.68 767.364V1154.74C2537.68 1175.67 2520.76 1192.64 2499.88 1192.64H1787.37C1766.49 1192.64 1749.56 1175.67 1749.56 1154.74V767.364Z"></path>
  <path fill="#032068" fill-rule="evenodd" d="M1742 767.364C1742 742.246 1762.31 721.885 1787.37 721.885H2499.88C2524.93 721.885 2545.24 742.246 2545.24 767.364V1154.74C2545.24 1179.86 2524.93 1200.22 2499.88 1200.22H1787.37C1762.31 1200.22 1742 1179.86 1742 1154.74V767.364ZM1787.37 737.044C1770.66 737.044 1757.12 750.619 1757.12 767.364V1154.74C1757.12 1171.48 1770.66 1185.06 1787.37 1185.06H2499.88C2516.58 1185.06 2530.12 1171.48 2530.12 1154.74V767.364C2530.12 750.619 2516.58 737.044 2499.88 737.044H1787.37Z" clip-rule="evenodd"></path>
  <path fill="#032068" d="M2299.75 942.667L2108.29 1105.45V1152.02C2108.29 1172.95 2125.21 1189.91 2146.09 1189.91H2499.88C2520.75 1189.91 2537.68 1172.95 2537.68 1152.02V1087.7L2347.18 941.479C2333.06 930.64 2313.31 931.135 2299.75 942.667Z"></path>
  <path fill="#F4AD5E" d="M2199.86 873.446C2199.86 901.805 2176.93 924.794 2148.64 924.794C2120.36 924.794 2097.43 901.805 2097.43 873.446C2097.43 845.088 2120.36 822.099 2148.64 822.099C2176.93 822.099 2199.86 845.088 2199.86 873.446Z"></path>
  <path fill="#fff" d="M1943.65 942.497L1749.56 1105.45L1749.56 1154.74C1749.56 1175.67 1766.49 1192.64 1787.37 1192.64H2314.84L1991.05 941.573C1976.99 930.676 1957.27 931.06 1943.65 942.497Z"></path>
  <path fill="#032068" fill-rule="evenodd" d="M1986.42 947.569C1975.18 938.851 1959.4 939.158 1948.5 948.307L1757.12 1108.99L1757.12 1154.74C1757.12 1171.48 1770.66 1185.06 1787.37 1185.06H2292.7L1986.42 947.569ZM1938.79 936.685C1955.14 922.962 1978.81 922.501 1995.67 935.577L2336.97 1200.22H1787.37C1762.31 1200.22 1742 1179.86 1742 1154.74L1742 1101.91L1938.79 936.685Z" clip-rule="evenodd"></path>
  <path fill="#F4AD5E" d="M2753.33 1304.64 2722.06 1345.04C2720.16 1347.5 2717.06 1348.68 2714.02 1348.11L2675.38 1340.8C2667.07 1339.23 2662.05 1349.78 2668.47 1355.34L2698.84 1381.66C2701.05 1383.58 2702.1 1386.54 2701.59 1389.45L2693.97 1432.85C2692.54 1441.01 2702.49 1446.06 2708.13 1440.03L2739.33 1406.68C2741.16 1404.72 2743.81 1403.77 2746.46 1404.14L2782.56 1409.1C2790.69 1410.22 2795.3 1399.99 2789.11 1394.54L2762.27 1370.9C2760.11 1369 2759.08 1366.11 2759.54 1363.26L2768.01 1311.12C2769.39 1302.59 2758.6 1297.82 2753.33 1304.64ZM2324.22 454.78 2330.68 479.974C2331.07 481.506 2330.57 483.164 2329.39 484.27L2314.39 498.339C2311.16 501.365 2313.83 506.618 2318.07 505.578L2338.12 500.658C2339.58 500.299 2341.1 500.741 2342.1 501.821L2357.14 517.966C2359.97 521.001 2365.11 518.322 2364.45 514.155L2360.81 491.092C2360.59 489.738 2361.04 488.339 2362.01 487.336L2375.28 473.635C2378.27 470.549 2375.6 465.562 2371.49 466.539L2353.61 470.778C2352.17 471.118 2350.69 470.69 2349.69 469.646L2331.41 450.541C2328.42 447.416 2323.14 450.533 2324.22 454.78Z"></path>
</svg>
